ffmpeg version 3.4.2 Copyright (c) 2000-2018 the FFmpeg developers
  built with Apple LLVM version 9.0.0 (clang-900.0.39.2)
  configuration: --prefix=/usr/local/Cellar/ffmpeg/3.4.2 --enable-shared --enable-pthreads --enable-version3 --enable-hardcoded-tables --enable-avresample --cc=clang --host-cflags= --host-ldflags= --disable-jack --enable-gpl --enable-libmp3lame --enable-libx264 --enable-libxvid --enable-opencl --enable-videotoolbox --disable-lzma
  libavutil      55. 78.100 / 55. 78.100
  libavcodec     57.107.100 / 57.107.100
  libavformat    57. 83.100 / 57. 83.100
  libavdevice    57. 10.100 / 57. 10.100
  libavfilter     6.107.100 /  6.107.100
  libavresample   3.  7.  0 /  3.  7.  0
  libswscale      4.  8.100 /  4.  8.100
  libswresample   2.  9.100 /  2.  9.100
  libpostproc    54.  7.100 / 54.  7.100
Input #0, rawvideo, from 'pipe:':
  Duration: N/A, start: 0.000000, bitrate: 491520 kb/s
    Stream #0:0: Video: rawvideo (RGBA / 0x41424752), rgba, 640x480, 491520 kb/s, 50 tbr, 50 tbn, 50 tbc
Stream mapping:
  Stream #0:0 -> #0:0 (rawvideo (native) -> mpeg4 (native))
Output #0, mp4, to 'docs/additive_smoothing.mp4':
  Metadata:
    encoder         : Lavf57.83.100
    Stream #0:0: Video: mpeg4 (mp4v / 0x7634706D), yuv420p, 640x480, q=2-31, 200 kb/s, 50 fps, 12800 tbn, 50 tbc
    Metadata:
      encoder         : Lavc57.107.100 mpeg4
    Side data:
      cpb: bitrate max/min/avg: 0/0/200000 buffer size: 0 vbv_delay: -1
frame=    6 fps=0.0 q=2.3 size=       0kB time=00:00:00.10 bitrate=   3.5kbits/s speed=0.189x    frame=   11 fps=9.7 q=2.6 size=       0kB time=00:00:00.20 bitrate=   1.8kbits/s speed=0.177x    frame=   15 fps=9.0 q=2.5 size=       0kB time=00:00:00.28 bitrate=   1.3kbits/s speed=0.168x    frame=   20 fps=9.0 q=2.0 size=       0kB time=00:00:00.38 bitrate=   0.9kbits/s speed=0.17x    frame=   24 fps=8.7 q=2.7 size=       0kB time=00:00:00.46 bitrate=   0.8kbits/s speed=0.168x    frame=   29 fps=8.7 q=3.8 size=       0kB time=00:00:00.56 bitrate=   0.6kbits/s speed=0.168x    frame=   34 fps=8.7 q=2.8 size=       0kB time=00:00:00.66 bitrate=   0.5kbits/s speed=0.169x    frame=   38 fps=8.6 q=3.4 size=       0kB time=00:00:00.74 bitrate=   0.5kbits/s speed=0.167x    frame=   43 fps=8.6 q=3.2 size=       0kB time=00:00:00.84 bitrate=   0.4kbits/s speed=0.167x    frame=   47 fps=8.5 q=3.2 size=       0kB time=00:00:00.92 bitrate=   0.4kbits/s speed=0.166x    frame=   52 fps=8.5 q=3.1 size=       0kB time=00:00:01.02 bitrate=   0.3kbits/s speed=0.167x    frame=   57 fps=8.5 q=3.7 size=       0kB time=00:00:01.12 bitrate=   0.3kbits/s speed=0.166x    frame=   62 fps=8.5 q=4.5 size=       0kB time=00:00:01.22 bitrate=   0.3kbits/s speed=0.167x    frame=   67 fps=8.5 q=4.9 size=       0kB time=00:00:01.32 bitrate=   0.3kbits/s speed=0.167x    frame=   71 fps=8.4 q=5.2 size=       0kB time=00:00:01.40 bitrate=   0.3kbits/s speed=0.167x    frame=   76 fps=8.5 q=5.7 size=       0kB time=00:00:01.50 bitrate=   0.2kbits/s speed=0.167x    frame=   80 fps=8.4 q=6.0 size=       0kB time=00:00:01.58 bitrate=   0.2kbits/s speed=0.166x    frame=   85 fps=8.4 q=5.8 size=       0kB time=00:00:01.68 bitrate=   0.2kbits/s speed=0.166x    frame=   90 fps=8.4 q=7.1 size=       0kB time=00:00:01.78 bitrate=   0.2kbits/s speed=0.165x    frame=   95 fps=8.4 q=7.3 size=       0kB time=00:00:01.88 bitrate=   0.2kbits/s speed=0.165x    frame=  100 fps=8.4 q=8.1 size=       0kB time=00:00:01.98 bitrate=   0.2kbits/s speed=0.166x    frame=  104 fps=8.3 q=8.7 size=       0kB time=00:00:02.06 bitrate=   0.2kbits/s speed=0.165x    frame=  109 fps=8.3 q=6.5 size=       0kB time=00:00:02.16 bitrate=   0.2kbits/s speed=0.165x    frame=  113 fps=8.3 q=7.8 size=       0kB time=00:00:02.24 bitrate=   0.2kbits/s speed=0.165x    frame=  118 fps=8.3 q=8.0 size=       0kB time=00:00:02.34 bitrate=   0.2kbits/s speed=0.165x    frame=  123 fps=8.3 q=12.4 size=     256kB time=00:00:02.44 bitrate= 859.6kbits/s speed=0.165x    frame=  128 fps=8.3 q=15.6 size=     256kB time=00:00:02.54 bitrate= 825.8kbits/s speed=0.165x    frame=  133 fps=8.3 q=11.9 size=     256kB time=00:00:02.64 bitrate= 794.5kbits/s speed=0.165x    frame=  137 fps=8.3 q=13.4 size=     256kB time=00:00:02.72 bitrate= 771.1kbits/s speed=0.165x    frame=  142 fps=8.3 q=13.4 size=     256kB time=00:00:02.82 bitrate= 743.8kbits/s speed=0.165x    frame=  146 fps=8.3 q=12.9 size=     256kB time=00:00:02.90 bitrate= 723.3kbits/s speed=0.165x    frame=  151 fps=8.3 q=24.8 size=     256kB time=00:00:03.00 bitrate= 699.1kbits/s speed=0.165x    frame=  156 fps=8.3 q=20.9 size=     256kB time=00:00:03.10 bitrate= 676.6kbits/s speed=0.165x    frame=  161 fps=8.3 q=29.1 size=     256kB time=00:00:03.20 bitrate= 655.5kbits/s speed=0.165x    frame=  166 fps=8.3 q=23.7 size=     256kB time=00:00:03.30 bitrate= 635.6kbits/s speed=0.165x    frame=  170 fps=8.3 q=22.8 size=     256kB time=00:00:03.38 bitrate= 620.5kbits/s speed=0.165x    frame=  175 fps=8.3 q=28.4 size=     256kB time=00:00:03.48 bitrate= 602.7kbits/s speed=0.165x    frame=  179 fps=8.3 q=26.4 size=     256kB time=00:00:03.56 bitrate= 589.2kbits/s speed=0.165x    frame=  184 fps=8.3 q=25.1 size=     256kB time=00:00:03.66 bitrate= 573.1kbits/s speed=0.165x    frame=  189 fps=8.3 q=25.3 size=     256kB time=00:00:03.76 bitrate= 557.8kbits/s speed=0.165x    frame=  194 fps=8.3 q=24.8 size=     256kB time=00:00:03.86 bitrate= 543.4kbits/s speed=0.165x    frame=  199 fps=8.3 q=26.5 size=     256kB time=00:00:03.96 bitrate= 529.7kbits/s speed=0.165x    frame=  203 fps=8.3 q=26.4 size=     256kB time=00:00:04.04 bitrate= 519.2kbits/s speed=0.165x    frame=  208 fps=8.3 q=29.7 size=     256kB time=00:00:04.14 bitrate= 506.6kbits/s speed=0.165x    frame=  212 fps=8.3 q=29.4 size=     256kB time=00:00:04.22 bitrate= 497.0kbits/s speed=0.165x    frame=  217 fps=8.3 q=24.8 size=     256kB time=00:00:04.32 bitrate= 485.5kbits/s speed=0.165x    frame=  222 fps=8.3 q=31.0 size=     256kB time=00:00:04.42 bitrate= 474.5kbits/s speed=0.165x    frame=  227 fps=8.3 q=31.0 size=     256kB time=00:00:04.52 bitrate= 464.0kbits/s speed=0.165x    frame=  232 fps=8.3 q=31.0 size=     256kB time=00:00:04.62 bitrate= 454.0kbits/s speed=0.165x    frame=  236 fps=8.3 q=31.0 size=     256kB time=00:00:04.70 bitrate= 446.3kbits/s speed=0.165x    frame=  241 fps=8.3 q=24.8 size=     256kB time=00:00:04.80 bitrate= 437.0kbits/s speed=0.165x    frame=  245 fps=8.3 q=31.0 size=     256kB time=00:00:04.88 bitrate= 429.8kbits/s speed=0.165x    frame=  250 fps=8.3 q=31.0 size=     256kB time=00:00:04.98 bitrate= 421.2kbits/s speed=0.165x    frame=  255 fps=8.3 q=31.0 size=     256kB time=00:00:05.08 bitrate= 412.9kbits/s speed=0.165x    frame=  260 fps=8.3 q=31.0 size=     256kB time=00:00:05.18 bitrate= 404.9kbits/s speed=0.165x    frame=  265 fps=8.3 q=24.8 size=     256kB time=00:00:05.28 bitrate= 397.2kbits/s speed=0.165x    frame=  269 fps=8.3 q=31.0 size=     256kB time=00:00:05.36 bitrate= 391.3kbits/s speed=0.165x    frame=  274 fps=8.3 q=31.0 size=     256kB time=00:00:05.46 bitrate= 384.2kbits/s speed=0.165x    frame=  278 fps=8.3 q=31.0 size=     256kB time=00:00:05.54 bitrate= 378.6kbits/s speed=0.165x    frame=  283 fps=8.3 q=31.0 size=     256kB time=00:00:05.64 bitrate= 371.9kbits/s speed=0.165x    frame=  288 fps=8.3 q=31.0 size=     256kB time=00:00:05.74 bitrate= 365.4kbits/s speed=0.165x    frame=  293 fps=8.3 q=31.0 size=     256kB time=00:00:05.84 bitrate= 359.2kbits/s speed=0.165x    frame=  298 fps=8.3 q=31.0 size=     256kB time=00:00:05.94 bitrate= 353.1kbits/s speed=0.165x    frame=  302 fps=8.3 q=31.0 size=     256kB time=00:00:06.02 bitrate= 348.4kbits/s speed=0.165x    frame=  307 fps=8.3 q=31.0 size=     256kB time=00:00:06.12 bitrate= 342.7kbits/s speed=0.165x    frame=  311 fps=8.3 q=31.0 size=     256kB time=00:00:06.20 bitrate= 338.3kbits/s speed=0.165x    frame=  316 fps=8.3 q=31.0 size=     256kB time=00:00:06.30 bitrate= 332.9kbits/s speed=0.165x    frame=  321 fps=8.3 q=31.0 size=     256kB time=00:00:06.40 bitrate= 327.7kbits/s speed=0.165x    frame=  326 fps=8.3 q=31.0 size=     256kB time=00:00:06.50 bitrate= 322.7kbits/s speed=0.165x    frame=  331 fps=8.3 q=31.0 size=     256kB time=00:00:06.60 bitrate= 317.8kbits/s speed=0.165x    frame=  336 fps=8.3 q=31.0 size=     256kB time=00:00:06.70 bitrate= 313.1kbits/s speed=0.165x    frame=  341 fps=8.3 q=31.0 size=     512kB time=00:00:06.80 bitrate= 616.9kbits/s speed=0.166x    frame=  345 fps=8.3 q=31.0 size=     512kB time=00:00:06.88 bitrate= 609.7kbits/s speed=0.165x    frame=  350 fps=8.3 q=31.0 size=     512kB time=00:00:06.98 bitrate= 600.9kbits/s speed=0.166x    frame=  355 fps=8.3 q=31.0 size=     512kB time=00:00:07.08 bitrate= 592.5kbits/s speed=0.166x    frame=  360 fps=8.3 q=31.0 size=     512kB time=00:00:07.18 bitrate= 584.2kbits/s speed=0.166x    frame=  365 fps=8.3 q=31.0 size=     512kB time=00:00:07.28 bitrate= 576.2kbits/s speed=0.166x    frame=  370 fps=8.3 q=31.0 size=     512kB time=00:00:07.38 bitrate= 568.4kbits/s speed=0.166x    frame=  375 fps=8.3 q=31.0 size=     512kB time=00:00:07.48 bitrate= 560.8kbits/s speed=0.166x    frame=  380 fps=8.3 q=31.0 size=     512kB time=00:00:07.58 bitrate= 553.4kbits/s speed=0.166x    frame=  385 fps=8.3 q=24.8 size=     512kB time=00:00:07.68 bitrate= 546.2kbits/s speed=0.166x    frame=  390 fps=8.3 q=31.0 size=     512kB time=00:00:07.78 bitrate= 539.2kbits/s speed=0.166x    frame=  395 fps=8.3 q=31.0 size=     512kB time=00:00:07.88 bitrate= 532.3kbits/s speed=0.166x    frame=  400 fps=8.3 q=31.0 size=     512kB time=00:00:07.98 bitrate= 525.6kbits/s speed=0.166x    frame=  405 fps=8.3 q=31.0 size=     512kB time=00:00:08.08 bitrate= 519.1kbits/s speed=0.167x    frame=  410 fps=8.3 q=31.0 size=     512kB time=00:00:08.18 bitrate= 512.8kbits/s speed=0.167x    frame=  415 fps=8.4 q=31.0 size=     512kB time=00:00:08.28 bitrate= 506.6kbits/s speed=0.167x    frame=  420 fps=8.4 q=31.0 size=     512kB time=00:00:08.38 bitrate= 500.6kbits/s speed=0.167x    frame=  425 fps=8.4 q=31.0 size=     512kB time=00:00:08.48 bitrate= 494.6kbits/s speed=0.167x    frame=  430 fps=8.4 q=31.0 size=     512kB time=00:00:08.58 bitrate= 488.9kbits/s speed=0.167x    frame=  435 fps=8.4 q=31.0 size=     512kB time=00:00:08.68 bitrate= 483.3kbits/s speed=0.167x    frame=  440 fps=8.4 q=31.0 size=     512kB time=00:00:08.78 bitrate= 477.7kbits/s speed=0.167x    frame=  444 fps=8.4 q=31.0 size=     512kB time=00:00:08.86 bitrate= 473.4kbits/s speed=0.167x    frame=  449 fps=8.4 q=31.0 size=     512kB time=00:00:08.96 bitrate= 468.1kbits/s speed=0.167x    frame=  453 fps=8.4 q=31.0 size=     512kB time=00:00:09.04 bitrate= 464.0kbits/s speed=0.167x    frame=  458 fps=8.4 q=31.0 size=     512kB time=00:00:09.14 bitrate= 458.9kbits/s speed=0.167x    frame=  463 fps=8.4 q=31.0 size=     512kB time=00:00:09.24 bitrate= 454.0kbits/s speed=0.167x    frame=  467 fps=8.4 q=31.0 size=     512kB time=00:00:09.32 bitrate= 450.1kbits/s speed=0.167x    frame=  472 fps=8.4 q=31.0 size=     512kB time=00:00:09.42 bitrate= 445.3kbits/s speed=0.167x    frame=  476 fps=8.4 q=31.0 size=     512kB time=00:00:09.50 bitrate= 441.5kbits/s speed=0.167x    frame=  481 fps=8.4 q=24.8 size=     512kB time=00:00:09.60 bitrate= 436.9kbits/s speed=0.167x    frame=  486 fps=8.4 q=31.0 size=     512kB time=00:00:09.70 bitrate= 432.4kbits/s speed=0.167x    frame=  491 fps=8.4 q=31.0 size=     512kB time=00:00:09.80 bitrate= 428.0kbits/s speed=0.167x    frame=  496 fps=8.4 q=31.0 size=     512kB time=00:00:09.90 bitrate= 423.7kbits/s speed=0.167x    frame=  500 fps=8.4 q=31.0 size=     512kB time=00:00:09.98 bitrate= 420.3kbits/s speed=0.167x    frame=  505 fps=8.4 q=24.8 size=     512kB time=00:00:10.08 bitrate= 416.1kbits/s speed=0.167x    frame=  509 fps=8.4 q=31.0 size=     512kB time=00:00:10.16 bitrate= 412.9kbits/s speed=0.167x    frame=  514 fps=8.4 q=31.0 size=     512kB time=00:00:10.26 bitrate= 408.8kbits/s speed=0.167x    frame=  519 fps=8.4 q=31.0 size=     512kB time=00:00:10.36 bitrate= 404.9kbits/s speed=0.167x    frame=  524 fps=8.4 q=31.0 size=     512kB time=00:00:10.46 bitrate= 401.0kbits/s speed=0.167x    frame=  529 fps=8.4 q=24.8 size=     512kB time=00:00:10.56 bitrate= 397.2kbits/s speed=0.167x    frame=  533 fps=8.4 q=31.0 size=     512kB time=00:00:10.64 bitrate= 394.2kbits/s speed=0.167x    frame=  538 fps=8.4 q=31.0 size=     512kB time=00:00:10.74 bitrate= 390.6kbits/s speed=0.167x    frame=  542 fps=8.4 q=31.0 size=     512kB time=00:00:10.82 bitrate= 387.7kbits/s speed=0.167x    frame=  547 fps=8.4 q=31.0 size=     512kB time=00:00:10.92 bitrate= 384.1kbits/s speed=0.167x    frame=  552 fps=8.4 q=31.0 size=     512kB time=00:00:11.02 bitrate= 380.6kbits/s speed=0.167x    frame=  557 fps=8.4 q=31.0 size=     512kB time=00:00:11.12 bitrate= 377.2kbits/s speed=0.167x    frame=  562 fps=8.4 q=31.0 size=     512kB time=00:00:11.22 bitrate= 373.9kbits/s speed=0.167x    frame=  566 fps=8.4 q=31.0 size=     512kB time=00:00:11.30 bitrate= 371.2kbits/s speed=0.167x    frame=  571 fps=8.4 q=31.0 size=     512kB time=00:00:11.40 bitrate= 367.9kbits/s speed=0.167x    frame=  575 fps=8.4 q=31.0 size=     512kB time=00:00:11.48 bitrate= 365.4kbits/s speed=0.167x    frame=  580 fps=8.4 q=31.0 size=     512kB time=00:00:11.58 bitrate= 362.2kbits/s speed=0.167x    frame=  585 fps=8.4 q=31.0 size=     512kB time=00:00:11.68 bitrate= 359.1kbits/s speed=0.167x    frame=  590 fps=8.4 q=31.0 size=     512kB time=00:00:11.78 bitrate= 356.1kbits/s speed=0.167x    frame=  595 fps=8.4 q=31.0 size=     512kB time=00:00:11.88 bitrate= 353.1kbits/s speed=0.167x    frame=  599 fps=8.4 q=31.0 size=     512kB time=00:00:11.96 bitrate= 350.7kbits/s speed=0.167x    frame=  604 fps=8.4 q=31.0 size=     512kB time=00:00:12.06 bitrate= 347.8kbits/s speed=0.167x    frame=  608 fps=8.4 q=31.0 size=     512kB time=00:00:12.14 bitrate= 345.5kbits/s speed=0.167x    frame=  613 fps=8.4 q=24.8 size=     768kB time=00:00:12.24 bitrate= 514.0kbits/s speed=0.167x    frame=  618 fps=8.4 q=31.0 size=     768kB time=00:00:12.34 bitrate= 509.9kbits/s speed=0.167x    frame=  623 fps=8.4 q=31.0 size=     768kB time=00:00:12.44 bitrate= 505.8kbits/s speed=0.167x    frame=  628 fps=8.4 q=31.0 size=     768kB time=00:00:12.54 bitrate= 501.7kbits/s speed=0.167x    frame=  632 fps=8.4 q=31.0 size=     768kB time=00:00:12.62 bitrate= 498.6kbits/s speed=0.167x    frame=  637 fps=8.4 q=24.8 size=     768kB time=00:00:12.72 bitrate= 494.6kbits/s speed=0.167x    frame=  641 fps=8.4 q=31.0 size=     768kB time=00:00:12.80 bitrate= 491.5kbits/s speed=0.167x    frame=  646 fps=8.4 q=31.0 size=     768kB time=00:00:12.90 bitrate= 487.7kbits/s speed=0.167x    frame=  651 fps=8.4 q=31.0 size=     768kB time=00:00:13.00 bitrate= 484.0kbits/s speed=0.167x    frame=  656 fps=8.4 q=31.0 size=     768kB time=00:00:13.10 bitrate= 480.3kbits/s speed=0.167x    frame=  661 fps=8.4 q=24.8 size=     768kB time=00:00:13.20 bitrate= 476.6kbits/s speed=0.167x    frame=  665 fps=8.4 q=31.0 size=     768kB time=00:00:13.28 bitrate= 473.8kbits/s speed=0.167x    frame=  670 fps=8.4 q=31.0 size=     768kB time=00:00:13.38 bitrate= 470.2kbits/s speed=0.167x    frame=  674 fps=8.4 q=31.0 size=     768kB time=00:00:13.46 bitrate= 467.4kbits/s speed=0.167x    frame=  679 fps=8.4 q=31.0 size=     768kB time=00:00:13.56 bitrate= 464.0kbits/s speed=0.167x    frame=  684 fps=8.4 q=31.0 size=     768kB time=00:00:13.66 bitrate= 460.6kbits/s speed=0.167x    frame=  689 fps=8.4 q=31.0 size=     768kB time=00:00:13.76 bitrate= 457.3kbits/s speed=0.167x    frame=  694 fps=8.4 q=31.0 size=     768kB time=00:00:13.86 bitrate= 454.0kbits/s speed=0.167x    frame=  698 fps=8.4 q=31.0 size=     768kB time=00:00:13.94 bitrate= 451.3kbits/s speed=0.167x    frame=  703 fps=8.4 q=31.0 size=     768kB time=00:00:14.04 bitrate= 448.1kbits/s speed=0.167x    frame=  707 fps=8.3 q=31.0 size=     768kB time=00:00:14.12 bitrate= 445.6kbits/s speed=0.167x    frame=  712 fps=8.3 q=31.0 size=     768kB time=00:00:14.22 bitrate= 442.5kbits/s speed=0.167x    frame=  717 fps=8.3 q=31.0 size=     768kB time=00:00:14.32 bitrate= 439.4kbits/s speed=0.167x    frame=  722 fps=8.3 q=31.0 size=     768kB time=00:00:14.42 bitrate= 436.3kbits/s speed=0.167x    frame=  727 fps=8.3 q=31.0 size=     768kB time=00:00:14.52 bitrate= 433.3kbits/s speed=0.167x    frame=  731 fps=8.3 q=31.0 size=     768kB time=00:00:14.60 bitrate= 430.9kbits/s speed=0.167x    frame=  736 fps=8.3 q=31.0 size=     768kB time=00:00:14.70 bitrate= 428.0kbits/s speed=0.167x    frame=  740 fps=8.3 q=31.0 size=     768kB time=00:00:14.78 bitrate= 425.7kbits/s speed=0.166x    frame=  745 fps=8.3 q=24.8 size=     768kB time=00:00:14.88 bitrate= 422.8kbits/s speed=0.166x    frame=  750 fps=8.3 q=31.0 size=     768kB time=00:00:14.98 bitrate= 420.0kbits/s speed=0.166x    frame=  755 fps=8.3 q=31.0 size=     768kB time=00:00:15.08 bitrate= 417.2kbits/s speed=0.166x    frame=  760 fps=8.3 q=31.0 size=     768kB time=00:00:15.18 bitrate= 414.5kbits/s speed=0.166x    frame=  764 fps=8.3 q=31.0 size=     768kB time=00:00:15.26 bitrate= 412.3kbits/s speed=0.166x    frame=  769 fps=8.3 q=24.8 size=     768kB time=00:00:15.36 bitrate= 409.6kbits/s speed=0.166x    frame=  773 fps=8.3 q=31.0 size=     768kB time=00:00:15.44 bitrate= 407.5kbits/s speed=0.166x    frame=  778 fps=8.3 q=31.0 size=     768kB time=00:00:15.54 bitrate= 404.9kbits/s speed=0.166x    frame=  783 fps=8.3 q=31.0 size=     768kB time=00:00:15.64 bitrate= 402.3kbits/s speed=0.166x    frame=  788 fps=8.3 q=31.0 size=     768kB time=00:00:15.74 bitrate= 399.7kbits/s speed=0.166x    frame=  793 fps=8.3 q=24.8 size=     768kB time=00:00:15.84 bitrate= 397.2kbits/s speed=0.166x    frame=  797 fps=8.3 q=31.0 size=     768kB time=00:00:15.92 bitrate= 395.2kbits/s speed=0.166x    frame=  802 fps=8.3 q=31.0 size=     768kB time=00:00:16.02 bitrate= 392.7kbits/s speed=0.166x    frame=  806 fps=8.3 q=31.0 size=     768kB time=00:00:16.10 bitrate= 390.8kbits/s speed=0.166x    frame=  811 fps=8.3 q=31.0 size=     768kB time=00:00:16.20 bitrate= 388.4kbits/s speed=0.166x    frame=  816 fps=8.3 q=31.0 size=     768kB time=00:00:16.30 bitrate= 386.0kbits/s speed=0.166x    frame=  821 fps=8.3 q=31.0 size=     768kB time=00:00:16.40 bitrate= 383.6kbits/s speed=0.166x    frame=  826 fps=8.3 q=31.0 size=     768kB time=00:00:16.50 bitrate= 381.3kbits/s speed=0.166x    frame=  830 fps=8.3 q=31.0 size=     768kB time=00:00:16.58 bitrate= 379.5kbits/s speed=0.166x    frame=  835 fps=8.3 q=31.0 size=     768kB time=00:00:16.68 bitrate= 377.2kbits/s speed=0.166x    frame=  839 fps=8.3 q=31.0 size=     768kB time=00:00:16.76 bitrate= 375.4kbits/s speed=0.166x    frame=  844 fps=8.3 q=31.0 size=     768kB time=00:00:16.86 bitrate= 373.2kbits/s speed=0.166x    frame=  848 fps=8.3 q=31.0 size=     768kB time=00:00:16.94 bitrate= 371.4kbits/s speed=0.165x    frame=  852 fps=8.3 q=31.0 size=     768kB time=00:00:17.02 bitrate= 369.7kbits/s speed=0.165x    frame=  857 fps=8.3 q=31.0 size=     768kB time=00:00:17.12 bitrate= 367.5kbits/s speed=0.165x    frame=  861 fps=8.3 q=31.0 size=     768kB time=00:00:17.20 bitrate= 365.8kbits/s speed=0.165x    frame=  866 fps=8.3 q=31.0 size=     768kB time=00:00:17.30 bitrate= 363.7kbits/s speed=0.165x    frame=  871 fps=8.3 q=31.0 size=     768kB time=00:00:17.40 bitrate= 361.6kbits/s speed=0.165x    frame=  876 fps=8.3 q=31.0 size=     768kB time=00:00:17.50 bitrate= 359.5kbits/s speed=0.165x    frame=  881 fps=8.3 q=31.0 size=    1024kB time=00:00:17.60 bitrate= 476.6kbits/s speed=0.165x    frame=  885 fps=8.3 q=31.0 size=    1024kB time=00:00:17.68 bitrate= 474.5kbits/s speed=0.165x    frame=  890 fps=8.3 q=31.0 size=    1024kB time=00:00:17.78 bitrate= 471.8kbits/s speed=0.165x    frame=  894 fps=8.3 q=31.0 size=    1024kB time=00:00:17.86 bitrate= 469.7kbits/s speed=0.165x    frame=  899 fps=8.3 q=31.0 size=    1024kB time=00:00:17.96 bitrate= 467.1kbits/s speed=0.165x    frame=  904 fps=8.3 q=31.0 size=    1024kB time=00:00:18.06 bitrate= 464.5kbits/s speed=0.165x    frame=  909 fps=8.3 q=31.0 size=    1024kB time=00:00:18.16 bitrate= 461.9kbits/s speed=0.165x    frame=  913 fps=8.3 q=24.8 size=    1024kB time=00:00:18.24 bitrate= 459.9kbits/s speed=0.165x    frame=  917 fps=8.2 q=31.0 size=    1024kB time=00:00:18.32 bitrate= 457.9kbits/s speed=0.165x    frame=  922 fps=8.2 q=31.0 size=    1024kB time=00:00:18.42 bitrate= 455.4kbits/s speed=0.165x    frame=  926 fps=8.2 q=31.0 size=    1024kB time=00:00:18.50 bitrate= 453.5kbits/s speed=0.165x    frame=  931 fps=8.2 q=31.0 size=    1024kB time=00:00:18.60 bitrate= 451.0kbits/s speed=0.165x    frame=  936 fps=8.2 q=31.0 size=    1024kB time=00:00:18.70 bitrate= 448.6kbits/s speed=0.165x    frame=  940 fps=8.2 q=31.0 size=    1024kB time=00:00:18.78 bitrate= 446.7kbits/s speed=0.165x    frame=  945 fps=8.2 q=31.0 size=    1024kB time=00:00:18.88 bitrate= 444.3kbits/s speed=0.165x    frame=  949 fps=8.2 q=24.8 size=    1024kB time=00:00:18.96 bitrate= 442.5kbits/s speed=0.165x    frame=  954 fps=8.2 q=31.0 size=    1024kB time=00:00:19.06 bitrate= 440.1kbits/s speed=0.165x    frame=  959 fps=8.2 q=31.0 size=    1024kB time=00:00:19.16 bitrate= 437.8kbits/s speed=0.165x    frame=  964 fps=8.2 q=31.0 size=    1024kB time=00:00:19.26 bitrate= 435.6kbits/s speed=0.165x    frame=  969 fps=8.2 q=31.0 size=    1024kB time=00:00:19.36 bitrate= 433.3kbits/s speed=0.165x    frame=  973 fps=8.2 q=24.8 size=    1024kB time=00:00:19.44 bitrate= 431.5kbits/s speed=0.165x    frame=  978 fps=8.2 q=31.0 size=    1024kB time=00:00:19.54 bitrate= 429.3kbits/s speed=0.165x    frame=  982 fps=8.2 q=31.0 size=    1024kB time=00:00:19.62 bitrate= 427.6kbits/s speed=0.165x    frame=  987 fps=8.2 q=31.0 size=    1024kB time=00:00:19.72 bitrate= 425.4kbits/s speed=0.165x    frame=  992 fps=8.2 q=31.0 size=    1024kB time=00:00:19.82 bitrate= 423.3kbits/s speed=0.165x    frame=  997 fps=8.2 q=24.8 size=    1024kB time=00:00:19.92 bitrate= 421.1kbits/s speed=0.165x    frame= 1002 fps=8.2 q=31.0 size=    1024kB time=00:00:20.02 bitrate= 419.0kbits/s speed=0.165x    frame= 1006 fps=8.2 q=31.0 size=    1024kB time=00:00:20.10 bitrate= 417.4kbits/s speed=0.165x    frame= 1011 fps=8.2 q=31.0 size=    1024kB time=00:00:20.20 bitrate= 415.3kbits/s speed=0.165x    frame= 1015 fps=8.2 q=31.0 size=    1024kB time=00:00:20.28 bitrate= 413.7kbits/s speed=0.165x    frame= 1020 fps=8.2 q=31.0 size=    1024kB time=00:00:20.38 bitrate= 411.6kbits/s speed=0.165x    frame= 1025 fps=8.2 q=31.0 size=    1024kB time=00:00:20.48 bitrate= 409.6kbits/s speed=0.165x    frame= 1030 fps=8.2 q=31.0 size=    1024kB time=00:00:20.58 bitrate= 407.6kbits/s speed=0.165x    frame= 1035 fps=8.2 q=31.0 size=    1024kB time=00:00:20.68 bitrate= 405.7kbits/s speed=0.165x    frame= 1039 fps=8.2 q=31.0 size=    1024kB time=00:00:20.76 bitrate= 404.1kbits/s speed=0.165x    frame= 1044 fps=8.2 q=31.0 size=    1024kB time=00:00:20.86 bitrate= 402.2kbits/s speed=0.165x    frame= 1048 fps=8.2 q=31.0 size=    1024kB time=00:00:20.94 bitrate= 400.6kbits/s speed=0.165x    frame= 1053 fps=8.2 q=31.0 size=    1024kB time=00:00:21.04 bitrate= 398.7kbits/s speed=0.165x    frame= 1058 fps=8.2 q=31.0 size=    1024kB time=00:00:21.14 bitrate= 396.8kbits/s speed=0.165x    frame= 1063 fps=8.2 q=31.0 size=    1024kB time=00:00:21.24 bitrate= 395.0kbits/s speed=0.165x    frame= 1068 fps=8.2 q=31.0 size=    1024kB time=00:00:21.34 bitrate= 393.1kbits/s speed=0.165x    frame= 1072 fps=8.2 q=31.0 size=    1024kB time=00:00:21.42 bitrate= 391.6kbits/s speed=0.165x    frame= 1077 fps=8.2 q=31.0 size=    1024kB time=00:00:21.52 bitrate= 389.8kbits/s speed=0.165x    frame= 1081 fps=8.2 q=24.8 size=    1024kB time=00:00:21.60 bitrate= 388.4kbits/s speed=0.165x    frame= 1086 fps=8.2 q=31.0 size=    1024kB time=00:00:21.70 bitrate= 386.6kbits/s speed=0.165x    frame= 1091 fps=8.2 q=31.0 size=    1024kB time=00:00:21.80 bitrate= 384.8kbits/s speed=0.165x    frame= 1096 fps=8.2 q=31.0 size=    1024kB time=00:00:21.90 bitrate= 383.1kbits/s speed=0.165x    frame= 1101 fps=8.2 q=31.0 size=    1024kB time=00:00:22.00 bitrate= 381.3kbits/s speed=0.165x    frame= 1105 fps=8.2 q=24.8 size=    1024kB time=00:00:22.08 bitrate= 379.9kbits/s speed=0.165x    frame= 1110 fps=8.2 q=31.0 size=    1024kB time=00:00:22.18 bitrate= 378.2kbits/s speed=0.165x    frame= 1114 fps=8.2 q=31.0 size=    1024kB time=00:00:22.26 bitrate= 376.9kbits/s speed=0.165x    frame= 1119 fps=8.2 q=31.0 size=    1024kB time=00:00:22.36 bitrate= 375.2kbits/s speed=0.165x    frame= 1124 fps=8.2 q=31.0 size=    1024kB time=00:00:22.46 bitrate= 373.5kbits/s speed=0.165x    frame= 1128 fps=8.2 q=31.0 size=    1024kB time=00:00:22.54 bitrate= 372.2kbits/s speed=0.165x    frame= 1133 fps=8.2 q=31.0 size=    1024kB time=00:00:22.64 bitrate= 370.5kbits/s speed=0.165x    frame= 1137 fps=8.2 q=31.0 size=    1024kB time=00:00:22.72 bitrate= 369.2kbits/s speed=0.164x    frame= 1142 fps=8.2 q=31.0 size=    1024kB time=00:00:22.82 bitrate= 367.6kbits/s speed=0.164x    frame= 1146 fps=8.2 q=31.0 size=    1024kB time=00:00:22.90 bitrate= 366.3kbits/s speed=0.164x    frame= 1151 fps=8.2 q=31.0 size=    1024kB time=00:00:23.00 bitrate= 364.7kbits/s speed=0.164x    frame= 1156 fps=8.2 q=31.0 size=    1024kB time=00:00:23.10 bitrate= 363.2kbits/s speed=0.164x    frame= 1160 fps=8.2 q=31.0 size=    1024kB time=00:00:23.18 bitrate= 361.9kbits/s speed=0.164x    frame= 1165 fps=8.2 q=24.8 size=    1280kB time=00:00:23.28 bitrate= 450.4kbits/s speed=0.164x    frame= 1169 fps=8.2 q=31.0 size=    1280kB time=00:00:23.36 bitrate= 448.9kbits/s speed=0.164x    frame= 1174 fps=8.2 q=31.0 size=    1280kB time=00:00:23.46 bitrate= 447.0kbits/s speed=0.164x    frame= 1179 fps=8.2 q=31.0 size=    1280kB time=00:00:23.56 bitrate= 445.1kbits/s speed=0.164x    frame= 1184 fps=8.2 q=31.0 size=    1280kB time=00:00:23.66 bitrate= 443.2kbits/s speed=0.164x    frame= 1189 fps=8.2 q=24.8 size=    1280kB time=00:00:23.76 bitrate= 441.3kbits/s speed=0.164x    frame= 1193 fps=8.2 q=31.0 size=    1280kB time=00:00:23.84 bitrate= 439.9kbits/s speed=0.164x    frame= 1198 fps=8.2 q=31.0 size=    1280kB time=00:00:23.94 bitrate= 438.0kbits/s speed=0.164x    frame= 1202 fps=8.2 q=31.0 size=    1280kB time=00:00:24.02 bitrate= 436.6kbits/s speed=0.164x    frame= 1207 fps=8.2 q=31.0 size=    1280kB time=00:00:24.12 bitrate= 434.7kbits/s speed=0.164x    frame= 1212 fps=8.2 q=31.0 size=    1280kB time=00:00:24.22 bitrate= 433.0kbits/s speed=0.164x    frame= 1217 fps=8.2 q=31.0 size=    1280kB time=00:00:24.32 bitrate= 431.2kbits/s speed=0.164x    frame= 1222 fps=8.2 q=31.0 size=    1280kB time=00:00:24.42 bitrate= 429.4kbits/s speed=0.164x    frame= 1226 fps=8.2 q=31.0 size=    1280kB time=00:00:24.50 bitrate= 428.0kbits/s speed=0.164x    frame= 1230 fps=8.2 q=31.0 size=    1280kB time=00:00:24.58 bitrate= 426.6kbits/s speed=0.164x    frame= 1234 fps=8.2 q=31.0 size=    1280kB time=00:00:24.66 bitrate= 425.2kbits/s speed=0.164x    frame= 1239 fps=8.2 q=31.0 size=    1280kB time=00:00:24.76 bitrate= 423.5kbits/s speed=0.164x    frame= 1244 fps=8.2 q=31.0 size=    1280kB time=00:00:24.86 bitrate= 421.8kbits/s speed=0.164x    frame= 1248 fps=8.2 q=31.0 size=    1280kB time=00:00:24.94 bitrate= 420.5kbits/s speed=0.164x    frame= 1253 fps=8.2 q=31.0 size=    1280kB time=00:00:25.04 bitrate= 418.8kbits/s speed=0.164x    frame= 1257 fps=8.2 q=31.0 size=    1280kB time=00:00:25.12 bitrate= 417.4kbits/s speed=0.164x    frame= 1262 fps=8.2 q=31.0 size=    1280kB time=00:00:25.22 bitrate= 415.8kbits/s speed=0.164x    frame= 1267 fps=8.2 q=31.0 size=    1280kB time=00:00:25.32 bitrate= 414.1kbits/s speed=0.164x    frame= 1272 fps=8.2 q=31.0 size=    1280kB time=00:00:25.42 bitrate= 412.5kbits/s speed=0.164x    frame= 1277 fps=8.2 q=31.0 size=    1280kB time=00:00:25.52 bitrate= 410.9kbits/s speed=0.164x    frame= 1281 fps=8.2 q=31.0 size=    1280kB time=00:00:25.60 bitrate= 409.6kbits/s speed=0.163x    frame= 1285 fps=8.2 q=24.8 size=    1280kB time=00:00:25.68 bitrate= 408.3kbits/s speed=0.163x    frame= 1289 fps=8.2 q=31.0 size=    1280kB time=00:00:25.76 bitrate= 407.1kbits/s speed=0.163x    frame= 1293 fps=8.2 q=31.0 size=    1280kB time=00:00:25.84 bitrate= 405.8kbits/s speed=0.163x    frame= 1297 fps=8.2 q=24.8 size=    1280kB time=00:00:25.92 bitrate= 404.6kbits/s speed=0.163x    frame= 1301 fps=8.2 q=31.0 size=    1280kB time=00:00:26.00 bitrate= 403.3kbits/s speed=0.163x    frame= 1305 fps=8.2 q=31.0 size=    1280kB time=00:00:26.08 bitrate= 402.1kbits/s speed=0.163x    frame= 1310 fps=8.2 q=31.0 size=    1280kB time=00:00:26.18 bitrate= 400.5kbits/s speed=0.163x    frame= 1314 fps=8.2 q=31.0 size=    1280kB time=00:00:26.26 bitrate= 399.3kbits/s speed=0.163x    frame= 1318 fps=8.2 q=31.0 size=    1280kB time=00:00:26.34 bitrate= 398.1kbits/s speed=0.163x    frame= 1322 fps=8.2 q=31.0 size=    1280kB time=00:00:26.42 bitrate= 396.9kbits/s speed=0.163x    frame= 1326 fps=8.2 q=31.0 size=    1280kB time=00:00:26.50 bitrate= 395.7kbits/s speed=0.163x    frame= 1330 fps=8.2 q=31.0 size=    1280kB time=00:00:26.58 bitrate= 394.5kbits/s speed=0.163x    frame= 1334 fps=8.1 q=31.0 size=    1280kB time=00:00:26.66 bitrate= 393.3kbits/s speed=0.163x    frame= 1338 fps=8.1 q=31.0 size=    1280kB time=00:00:26.74 bitrate= 392.1kbits/s speed=0.163x    frame= 1342 fps=8.1 q=31.0 size=    1280kB time=00:00:26.82 bitrate= 391.0kbits/s speed=0.163x    frame= 1346 fps=8.1 q=31.0 size=    1280kB time=00:00:26.90 bitrate= 389.8kbits/s speed=0.163x    frame= 1350 fps=8.1 q=31.0 size=    1280kB time=00:00:26.98 bitrate= 388.7kbits/s speed=0.163x    frame= 1354 fps=8.1 q=31.0 size=    1280kB time=00:00:27.06 bitrate= 387.5kbits/s speed=0.163x    frame= 1358 fps=8.1 q=31.0 size=    1280kB time=00:00:27.14 bitrate= 386.4kbits/s speed=0.163x    frame= 1362 fps=8.1 q=31.0 size=    1280kB time=00:00:27.22 bitrate= 385.2kbits/s speed=0.163x    frame= 1366 fps=8.1 q=31.0 size=    1280kB time=00:00:27.30 bitrate= 384.1kbits/s speed=0.162x    frame= 1370 fps=8.1 q=31.0 size=    1280kB time=00:00:27.38 bitrate= 383.0kbits/s speed=0.162x    frame= 1374 fps=8.1 q=31.0 size=    1280kB time=00:00:27.46 bitrate= 381.9kbits/s speed=0.162x    frame= 1378 fps=8.1 q=31.0 size=    1280kB time=00:00:27.54 bitrate= 380.8kbits/s speed=0.162x    frame= 1382 fps=8.1 q=31.0 size=    1280kB time=00:00:27.62 bitrate= 379.7kbits/s speed=0.162x    frame= 1386 fps=8.1 q=31.0 size=    1280kB time=00:00:27.70 bitrate= 378.6kbits/s speed=0.162x    frame= 1390 fps=8.1 q=31.0 size=    1280kB time=00:00:27.78 bitrate= 377.5kbits/s speed=0.162x    frame= 1394 fps=8.1 q=31.0 size=    1280kB time=00:00:27.86 bitrate= 376.4kbits/s speed=0.162x    frame= 1398 fps=8.1 q=31.0 size=    1280kB time=00:00:27.94 bitrate= 375.3kbits/s speed=0.162x    frame= 1402 fps=8.1 q=31.0 size=    1280kB time=00:00:28.02 bitrate= 374.2kbits/s speed=0.162x    frame= 1406 fps=8.1 q=31.0 size=    1280kB time=00:00:28.10 bitrate= 373.2kbits/s speed=0.162x    frame= 1410 fps=8.1 q=31.0 size=    1280kB time=00:00:28.18 bitrate= 372.1kbits/s speed=0.162x    frame= 1414 fps=8.1 q=31.0 size=    1280kB time=00:00:28.26 bitrate= 371.1kbits/s speed=0.162x    frame= 1418 fps=8.1 q=31.0 size=    1280kB time=00:00:28.34 bitrate= 370.0kbits/s speed=0.162x    frame= 1422 fps=8.1 q=31.0 size=    1280kB time=00:00:28.42 bitrate= 369.0kbits/s speed=0.162x    frame= 1426 fps=8.1 q=31.0 size=    1280kB time=00:00:28.50 bitrate= 367.9kbits/s speed=0.162x    frame= 1430 fps=8.1 q=31.0 size=    1280kB time=00:00:28.58 bitrate= 366.9kbits/s speed=0.162x    frame= 1434 fps=8.1 q=31.0 size=    1280kB time=00:00:28.66 bitrate= 365.9kbits/s speed=0.162x    frame= 1438 fps=8.1 q=31.0 size=    1280kB time=00:00:28.74 bitrate= 364.9kbits/s speed=0.162x    frame= 1442 fps=8.1 q=31.0 size=    1536kB time=00:00:28.82 bitrate= 436.6kbits/s speed=0.162x    frame= 1446 fps=8.1 q=31.0 size=    1536kB time=00:00:28.90 bitrate= 435.4kbits/s speed=0.162x    frame= 1450 fps=8.1 q=31.0 size=    1536kB time=00:00:28.98 bitrate= 434.2kbits/s speed=0.162x    frame= 1454 fps=8.1 q=31.0 size=    1536kB time=00:00:29.06 bitrate= 433.0kbits/s speed=0.162x    frame= 1458 fps=8.1 q=31.0 size=    1536kB time=00:00:29.14 bitrate= 431.8kbits/s speed=0.162x    frame= 1462 fps=8.1 q=31.0 size=    1536kB time=00:00:29.22 bitrate= 430.6kbits/s speed=0.161x    frame= 1466 fps=8.1 q=31.0 size=    1536kB time=00:00:29.30 bitrate= 429.5kbits/s speed=0.161x    frame= 1470 fps=8.1 q=31.0 size=    1536kB time=00:00:29.38 bitrate= 428.3kbits/s speed=0.161x    frame= 1474 fps=8.1 q=31.0 size=    1536kB time=00:00:29.46 bitrate= 427.1kbits/s speed=0.161x    frame= 1478 fps=8.1 q=31.0 size=    1536kB time=00:00:29.54 bitrate= 426.0kbits/s speed=0.161x    frame= 1482 fps=8.1 q=31.0 size=    1536kB time=00:00:29.62 bitrate= 424.8kbits/s speed=0.161x    frame= 1486 fps=8.1 q=31.0 size=    1536kB time=00:00:29.70 bitrate= 423.7kbits/s speed=0.161x    frame= 1490 fps=8.1 q=31.0 size=    1536kB time=00:00:29.78 bitrate= 422.5kbits/s speed=0.161x    frame= 1494 fps=8.1 q=31.0 size=    1536kB time=00:00:29.86 bitrate= 421.4kbits/s speed=0.161x    frame= 1498 fps=8.1 q=31.0 size=    1536kB time=00:00:29.94 bitrate= 420.3kbits/s speed=0.161x    frame= 1502 fps=8.0 q=31.0 size=    1536kB time=00:00:30.02 bitrate= 419.2kbits/s speed=0.161x    frame= 1506 fps=8.0 q=31.0 size=    1536kB time=00:00:30.10 bitrate= 418.0kbits/s speed=0.161x    frame= 1510 fps=8.0 q=31.0 size=    1536kB time=00:00:30.18 bitrate= 416.9kbits/s speed=0.161x    frame= 1514 fps=8.0 q=31.0 size=    1536kB time=00:00:30.26 bitrate= 415.8kbits/s speed=0.161x    frame= 1518 fps=8.0 q=31.0 size=    1536kB time=00:00:30.34 bitrate= 414.7kbits/s speed=0.161x    frame= 1522 fps=8.0 q=31.0 size=    1536kB time=00:00:30.42 bitrate= 413.6kbits/s speed=0.161x    frame= 1526 fps=8.0 q=31.0 size=    1536kB time=00:00:30.50 bitrate= 412.6kbits/s speed=0.161x    frame= 1530 fps=8.0 q=31.0 size=    1536kB time=00:00:30.58 bitrate= 411.5kbits/s speed=0.161x    frame= 1534 fps=8.0 q=31.0 size=    1536kB time=00:00:30.66 bitrate= 410.4kbits/s speed=0.16x    frame= 1538 fps=8.0 q=31.0 size=    1536kB time=00:00:30.74 bitrate= 409.3kbits/s speed=0.16x    frame= 1542 fps=8.0 q=31.0 size=    1536kB time=00:00:30.82 bitrate= 408.3kbits/s speed=0.16x    frame= 1546 fps=8.0 q=31.0 size=    1536kB time=00:00:30.90 bitrate= 407.2kbits/s speed=0.16x    frame= 1550 fps=8.0 q=31.0 size=    1536kB time=00:00:30.98 bitrate= 406.2kbits/s speed=0.16x    frame= 1554 fps=8.0 q=31.0 size=    1536kB time=00:00:31.06 bitrate= 405.1kbits/s speed=0.16x    frame= 1558 fps=8.0 q=31.0 size=    1536kB time=00:00:31.14 bitrate= 404.1kbits/s speed=0.16x    frame= 1562 fps=8.0 q=31.0 size=    1536kB time=00:00:31.22 bitrate= 403.1kbits/s speed=0.16x    frame= 1566 fps=8.0 q=31.0 size=    1536kB time=00:00:31.30 bitrate= 402.0kbits/s speed=0.16x    frame= 1570 fps=8.0 q=31.0 size=    1536kB time=00:00:31.38 bitrate= 401.0kbits/s speed=0.16x    frame= 1574 fps=8.0 q=31.0 size=    1536kB time=00:00:31.46 bitrate= 400.0kbits/s speed=0.16x    frame= 1578 fps=8.0 q=31.0 size=    1536kB time=00:00:31.54 bitrate= 399.0kbits/s speed=0.16x    frame= 1582 fps=8.0 q=31.0 size=    1536kB time=00:00:31.62 bitrate= 398.0kbits/s speed=0.16x    frame= 1586 fps=8.0 q=31.0 size=    1536kB time=00:00:31.70 bitrate= 396.9kbits/s speed=0.16x    frame= 1590 fps=8.0 q=31.0 size=    1536kB time=00:00:31.78 bitrate= 395.9kbits/s speed=0.16x    frame= 1594 fps=8.0 q=31.0 size=    1536kB time=00:00:31.86 bitrate= 395.0kbits/s speed=0.16x    frame= 1598 fps=8.0 q=31.0 size=    1536kB time=00:00:31.94 bitrate= 394.0kbits/s speed=0.16x    frame= 1602 fps=8.0 q=31.0 size=    1536kB time=00:00:32.02 bitrate= 393.0kbits/s speed=0.16x    frame= 1606 fps=8.0 q=31.0 size=    1536kB time=00:00:32.10 bitrate= 392.0kbits/s speed=0.16x    frame= 1609 fps=8.0 q=24.8 size=    1536kB time=00:00:32.16 bitrate= 391.3kbits/s speed=0.159x    frame= 1613 fps=8.0 q=31.0 size=    1536kB time=00:00:32.24 bitrate= 390.3kbits/s speed=0.159x    frame= 1617 fps=8.0 q=31.0 size=    1536kB time=00:00:32.32 bitrate= 389.3kbits/s speed=0.159x    frame= 1621 fps=8.0 q=24.8 size=    1536kB time=00:00:32.40 bitrate= 388.4kbits/s speed=0.159x    frame= 1625 fps=8.0 q=31.0 size=    1536kB time=00:00:32.48 bitrate= 387.4kbits/s speed=0.159x    frame= 1629 fps=8.0 q=31.0 size=    1536kB time=00:00:32.56 bitrate= 386.5kbits/s speed=0.159x    frame= 1633 fps=8.0 q=24.8 size=    1536kB time=00:00:32.64 bitrate= 385.5kbits/s speed=0.159x    frame= 1637 fps=8.0 q=31.0 size=    1536kB time=00:00:32.72 bitrate= 384.6kbits/s speed=0.159x    frame= 1641 fps=8.0 q=31.0 size=    1536kB time=00:00:32.80 bitrate= 383.6kbits/s speed=0.159x    frame= 1645 fps=7.9 q=24.8 size=    1536kB time=00:00:32.88 bitrate= 382.7kbits/s speed=0.159x    frame= 1649 fps=7.9 q=31.0 size=    1536kB time=00:00:32.96 bitrate= 381.8kbits/s speed=0.159x    frame= 1653 fps=7.9 q=31.0 size=    1536kB time=00:00:33.04 bitrate= 380.8kbits/s speed=0.159x    frame= 1657 fps=7.9 q=24.8 size=    1536kB time=00:00:33.12 bitrate= 379.9kbits/s speed=0.159x    frame= 1661 fps=7.9 q=31.0 size=    1536kB time=00:00:33.20 bitrate= 379.0kbits/s speed=0.159x    frame= 1665 fps=7.9 q=31.0 size=    1536kB time=00:00:33.28 bitrate= 378.1kbits/s speed=0.158x    frame= 1669 fps=7.9 q=24.8 size=    1536kB time=00:00:33.36 bitrate= 377.2kbits/s speed=0.158x    frame= 1673 fps=7.9 q=31.0 size=    1536kB time=00:00:33.44 bitrate= 376.3kbits/s speed=0.158x    frame= 1677 fps=7.9 q=31.0 size=    1536kB time=00:00:33.52 bitrate= 375.4kbits/s speed=0.158x    frame= 1681 fps=7.9 q=24.8 size=    1536kB time=00:00:33.60 bitrate= 374.5kbits/s speed=0.158x    frame= 1685 fps=7.9 q=31.0 size=    1536kB time=00:00:33.68 bitrate= 373.6kbits/s speed=0.158x    frame= 1689 fps=7.9 q=31.0 size=    1536kB time=00:00:33.76 bitrate= 372.7kbits/s speed=0.158x    frame= 1693 fps=7.9 q=24.8 size=    1536kB time=00:00:33.84 bitrate= 371.8kbits/s speed=0.158x    frame= 1697 fps=7.9 q=31.0 size=    1536kB time=00:00:33.92 bitrate= 371.0kbits/s speed=0.158x    frame= 1701 fps=7.9 q=31.0 size=    1536kB time=00:00:34.00 bitrate= 370.1kbits/s speed=0.158x    frame= 1705 fps=7.9 q=24.8 size=    1536kB time=00:00:34.08 bitrate= 369.2kbits/s speed=0.158x    frame= 1709 fps=7.9 q=31.0 size=    1536kB time=00:00:34.16 bitrate= 368.4kbits/s speed=0.158x    frame= 1713 fps=7.9 q=31.0 size=    1536kB time=00:00:34.24 bitrate= 367.5kbits/s speed=0.158x    frame= 1717 fps=7.9 q=24.8 size=    1792kB time=00:00:34.32 bitrate= 427.8kbits/s speed=0.158x    frame= 1721 fps=7.9 q=31.0 size=    1792kB time=00:00:34.40 bitrate= 426.8kbits/s speed=0.158x    frame= 1725 fps=7.9 q=31.0 size=    1792kB time=00:00:34.48 bitrate= 425.8kbits/s speed=0.158x    frame= 1729 fps=7.9 q=24.8 size=    1792kB time=00:00:34.56 bitrate= 424.8kbits/s speed=0.158x    frame= 1733 fps=7.9 q=31.0 size=    1792kB time=00:00:34.64 bitrate= 423.8kbits/s speed=0.158x    frame= 1737 fps=7.9 q=31.0 size=    1792kB time=00:00:34.72 bitrate= 422.8kbits/s speed=0.158x    frame= 1741 fps=7.9 q=24.8 size=    1792kB time=00:00:34.80 bitrate= 421.9kbits/s speed=0.158x    frame= 1745 fps=7.9 q=31.0 size=    1792kB time=00:00:34.88 bitrate= 420.9kbits/s speed=0.157x    frame= 1749 fps=7.9 q=31.0 size=    1792kB time=00:00:34.96 bitrate= 419.9kbits/s speed=0.157x    frame= 1753 fps=7.9 q=24.8 size=    1792kB time=00:00:35.04 bitrate= 419.0kbits/s speed=0.157x    frame= 1757 fps=7.9 q=31.0 size=    1792kB time=00:00:35.12 bitrate= 418.0kbits/s speed=0.157x    frame= 1761 fps=7.9 q=31.0 size=    1792kB time=00:00:35.20 bitrate= 417.1kbits/s speed=0.157x    frame= 1765 fps=7.9 q=24.8 size=    1792kB time=00:00:35.28 bitrate= 416.1kbits/s speed=0.157x    frame= 1769 fps=7.9 q=31.0 size=    1792kB time=00:00:35.36 bitrate= 415.2kbits/s speed=0.157x    frame= 1773 fps=7.9 q=31.0 size=    1792kB time=00:00:35.44 bitrate= 414.2kbits/s speed=0.157x    frame= 1777 fps=7.9 q=24.8 size=    1792kB time=00:00:35.52 bitrate= 413.3kbits/s speed=0.157x    frame= 1781 fps=7.9 q=31.0 size=    1792kB time=00:00:35.60 bitrate= 412.4kbits/s speed=0.157x    frame= 1785 fps=7.9 q=31.0 size=    1792kB time=00:00:35.68 bitrate= 411.4kbits/s speed=0.157x    frame= 1789 fps=7.8 q=24.8 size=    1792kB time=00:00:35.76 bitrate= 410.5kbits/s speed=0.157x    frame= 1793 fps=7.8 q=31.0 size=    1792kB time=00:00:35.84 bitrate= 409.6kbits/s speed=0.157x    frame= 1797 fps=7.8 q=31.0 size=    1792kB time=00:00:35.92 bitrate= 408.7kbits/s speed=0.157x    frame= 1801 fps=7.8 q=24.8 size=    1792kB time=00:00:36.00 bitrate= 407.8kbits/s speed=0.157x    frame= 1805 fps=7.8 q=31.0 size=    1792kB time=00:00:36.08 bitrate= 406.9kbits/s speed=0.157x    frame= 1809 fps=7.8 q=31.0 size=    1792kB time=00:00:36.16 bitrate= 406.0kbits/s speed=0.157x    frame= 1813 fps=7.8 q=24.8 size=    1792kB time=00:00:36.24 bitrate= 405.1kbits/s speed=0.157x    frame= 1817 fps=7.8 q=31.0 size=    1792kB time=00:00:36.32 bitrate= 404.2kbits/s speed=0.157x    frame= 1821 fps=7.8 q=31.0 size=    1792kB time=00:00:36.40 bitrate= 403.3kbits/s speed=0.157x    frame= 1825 fps=7.8 q=24.8 size=    1792kB time=00:00:36.48 bitrate= 402.4kbits/s speed=0.156x    frame= 1829 fps=7.8 q=31.0 size=    1792kB time=00:00:36.56 bitrate= 401.5kbits/s speed=0.156x    frame= 1833 fps=7.8 q=31.0 size=    1792kB time=00:00:36.64 bitrate= 400.7kbits/s speed=0.156x    frame= 1837 fps=7.8 q=24.8 size=    1792kB time=00:00:36.72 bitrate= 399.8kbits/s speed=0.156x    frame= 1840 fps=7.8 q=31.0 size=    1792kB time=00:00:36.78 bitrate= 399.1kbits/s speed=0.156x    frame= 1844 fps=7.8 q=31.0 size=    1792kB time=00:00:36.86 bitrate= 398.3kbits/s speed=0.156x    frame= 1848 fps=7.8 q=31.0 size=    1792kB time=00:00:36.94 bitrate= 397.4kbits/s speed=0.156x    frame= 1852 fps=7.8 q=31.0 size=    1792kB time=00:00:37.02 bitrate= 396.6kbits/s speed=0.156x    frame= 1856 fps=7.8 q=31.0 size=    1792kB time=00:00:37.10 bitrate= 395.7kbits/s speed=0.156x    frame= 1860 fps=7.8 q=31.0 size=    1792kB time=00:00:37.18 bitrate= 394.8kbits/s speed=0.156x    frame= 1863 fps=7.8 q=31.0 size=    1792kB time=00:00:37.24 bitrate= 394.2kbits/s speed=0.156x    frame= 1867 fps=7.8 q=31.0 size=    1792kB time=00:00:37.32 bitrate= 393.4kbits/s speed=0.156x    frame= 1871 fps=7.8 q=31.0 size=    1792kB time=00:00:37.40 bitrate= 392.5kbits/s speed=0.156x    frame= 1874 fps=7.8 q=31.0 size=    1792kB time=00:00:37.46 bitrate= 391.9kbits/s speed=0.156x    frame= 1878 fps=7.8 q=31.0 size=    1792kB time=00:00:37.54 bitrate= 391.1kbits/s speed=0.156x    frame= 1882 fps=7.8 q=31.0 size=    1792kB time=00:00:37.62 bitrate= 390.2kbits/s speed=0.156x    frame= 1886 fps=7.8 q=31.0 size=    1792kB time=00:00:37.70 bitrate= 389.4kbits/s speed=0.156x    frame= 1890 fps=7.8 q=31.0 size=    1792kB time=00:00:37.78 bitrate= 388.6kbits/s speed=0.156x    frame= 1894 fps=7.8 q=31.0 size=    1792kB time=00:00:37.86 bitrate= 387.8kbits/s speed=0.156x    frame= 1898 fps=7.8 q=31.0 size=    1792kB time=00:00:37.94 bitrate= 386.9kbits/s speed=0.156x    frame= 1902 fps=7.8 q=31.0 size=    1792kB time=00:00:38.02 bitrate= 386.1kbits/s speed=0.155x    frame= 1906 fps=7.8 q=31.0 size=    1792kB time=00:00:38.10 bitrate= 385.3kbits/s speed=0.155x    frame= 1910 fps=7.8 q=31.0 size=    1792kB time=00:00:38.18 bitrate= 384.5kbits/s speed=0.155x    frame= 1914 fps=7.8 q=31.0 size=    1792kB time=00:00:38.26 bitrate= 383.7kbits/s speed=0.155x    frame= 1918 fps=7.8 q=31.0 size=    1792kB time=00:00:38.34 bitrate= 382.9kbits/s speed=0.155x    frame= 1922 fps=7.8 q=31.0 size=    1792kB time=00:00:38.42 bitrate= 382.1kbits/s speed=0.155x    frame= 1926 fps=7.8 q=31.0 size=    1792kB time=00:00:38.50 bitrate= 381.3kbits/s speed=0.155x    frame= 1930 fps=7.8 q=31.0 size=    1792kB time=00:00:38.58 bitrate= 380.5kbits/s speed=0.155x    frame= 1934 fps=7.8 q=31.0 size=    1792kB time=00:00:38.66 bitrate= 379.7kbits/s speed=0.155x    frame= 1938 fps=7.8 q=31.0 size=    1792kB time=00:00:38.74 bitrate= 378.9kbits/s speed=0.155x    frame= 1942 fps=7.8 q=31.0 size=    1792kB time=00:00:38.82 bitrate= 378.2kbits/s speed=0.155x    frame= 1946 fps=7.8 q=31.0 size=    1792kB time=00:00:38.90 bitrate= 377.4kbits/s speed=0.155x    frame= 1950 fps=7.7 q=31.0 size=    1792kB time=00:00:38.98 bitrate= 376.6kbits/s speed=0.155x    frame= 1954 fps=7.7 q=31.0 size=    1792kB time=00:00:39.06 bitrate= 375.8kbits/s speed=0.155x    frame= 1958 fps=7.7 q=31.0 size=    1792kB time=00:00:39.14 bitrate= 375.1kbits/s speed=0.155x    frame= 1962 fps=7.7 q=31.0 size=    1792kB time=00:00:39.22 bitrate= 374.3kbits/s speed=0.155x    frame= 1966 fps=7.7 q=31.0 size=    1792kB time=00:00:39.30 bitrate= 373.5kbits/s speed=0.155x    frame= 1970 fps=7.7 q=31.0 size=    1792kB time=00:00:39.38 bitrate= 372.8kbits/s speed=0.155x    frame= 1974 fps=7.7 q=31.0 size=    1792kB time=00:00:39.46 bitrate= 372.0kbits/s speed=0.155x    frame= 1978 fps=7.7 q=31.0 size=    1792kB time=00:00:39.54 bitrate= 371.3kbits/s speed=0.155x    frame= 1982 fps=7.7 q=31.0 size=    1792kB time=00:00:39.62 bitrate= 370.5kbits/s speed=0.154x    frame= 1986 fps=7.7 q=31.0 size=    1792kB time=00:00:39.70 bitrate= 369.8kbits/s speed=0.154x    frame= 1990 fps=7.7 q=31.0 size=    1792kB time=00:00:39.78 bitrate= 369.0kbits/s speed=0.154x    frame= 1993 fps=7.7 q=24.8 size=    1792kB time=00:00:39.84 bitrate= 368.5kbits/s speed=0.154x    frame= 1997 fps=7.7 q=31.0 size=    1792kB time=00:00:39.92 bitrate= 367.7kbits/s speed=0.154x    frame= 2001 fps=7.7 q=31.0 size=    1792kB time=00:00:40.00 bitrate= 367.0kbits/s speed=0.154x    frame= 2001 fps=7.7 q=31.0 Lsize=    2056kB time=00:00:40.00 bitrate= 421.0kbits/s speed=0.154x    
video:2046kB audio:0kB subtitle:0kB other streams:0kB global headers:0kB muxing overhead: 0.455594%
